<svg viewBox="0 0 512 512" xmlns="http://www.w3.org/2000/svg">
  <rect width="512" height="512" rx="115.2" ry="115.2" fill="#000000"/>
  <g transform="translate(42.13,22.88) scale(2.1387)">
    <g fill="none" stroke="#ffffff" stroke-width="12.5" stroke-linecap="round" stroke-linejoin="round">
      <path d="M54.00,78.00 Q80.68,38.64 100.00,30.00 Q119.32,38.64 146.00,78.00"/>
      <path d="M34.00,122.00 C34.00,111.00 76.90,78.00 100.00,78.00 C123.10,78.00 166.00,111.00 166.00,122.00"/>
      <path d="M44.00,148.00 C44.00,138.00 80.40,108.00 100.00,108.00 C119.60,108.00 156.00,138.00 156.00,148.00"/>
      <path d="M56.00,168.00 C56.00,159.50 84.60,134.00 100.00,134.00 C115.40,134.00 144.00,159.50 144.00,168.00"/>
      <path d="M86.00,188.00 Q94.12,176.10 100.00,174.00 Q105.88,176.10 114.00,188.00"/>
    </g>
  </g>
</svg>